# xmcd CD database file
#
# Track frame offsets:
#	150
#	12783
#	33580
#
# Disc length: 614 seconds
#
# Revision: 0
# Processed by: cddbd v1.5.1PL0 Copyright (c) Steve Scherf et al.
# Submitted via: CDex 1.51
#
DISCID=19026403
DTITLE=夢題 - Mudai:Game
DYEAR=1900
DGENRE=未分類 (日本)
TTITLE0=freezing air - eXanoia Vocal Ver. -
TTITLE1=夢題
TTITLE2=freezing air - eXanoia Instrumental Ver. -
EXTD=
EXTT0=
EXTT1=
EXTT2=
PLAYORDER=
